<?xml version="1.0" encoding="UTF-8" standalone="no"?>
<svg
   xmlns:dc="http://purl.org/dc/elements/1.1/"
   xmlns:cc="http://creativecommons.org/ns#"
   xmlns:rdf="http://www.w3.org/1999/02/22-rdf-syntax-ns#"
   xmlns:svg="http://www.w3.org/2000/svg"
   xmlns="http://www.w3.org/2000/svg"
   xmlns:xlink="http://www.w3.org/1999/xlink"
   id="svg1142"
   height="16"
   width="16"
   version="1.1">
  <metadata
     id="metadata1146">
    <rdf:RDF>
      <cc:Work
         rdf:about="">
        <dc:format>image/svg+xml</dc:format>
        <dc:type
           rdf:resource="http://purl.org/dc/dcmitype/StillImage" />
        <dc:title></dc:title>
      </cc:Work>
    </rdf:RDF>
  </metadata>
  <defs
     id="defs1136">
    <linearGradient
       gradientTransform="scale(0.04444444)"
       y2="360"
       x2="360"
       gradientUnits="userSpaceOnUse"
       xlink:href="#a"
       id="g1" />
    <linearGradient
       gradientTransform="scale(0.04444444)"
       y2="180"
       x2="180"
       y1="60"
       x1="60"
       gradientUnits="userSpaceOnUse"
       xlink:href="#b"
       id="g2" />
    <linearGradient
       id="a">
      <stop
         id="stop1126"
         stop-color="#882E5E"
         offset="0" />
      <stop
         id="stop1128"
         stop-color="#D11F3E"
         offset="1" />
    </linearGradient>
    <linearGradient
       id="b">
      <stop
         id="stop1131"
         stop-color="#AFAFB1"
         offset="0" />
      <stop
         id="stop1133"
         stop-color="white"
         offset="1" />
    </linearGradient>
  </defs>
  <path
     id="path1138"
     style="fill:url(#g1);stroke-width:0.04444445"
     d="M 0,0 H 16 V 16 H 0 Z" />
  <path
     id="path1140"
     style="fill:url(#g2);stroke-width:0.04444445"
     d="m 4.4444444,2.66667 c -0.9777777,0 -1.7777777,0.8 -1.7777777,1.77777 h 6.2222222 c 1.4222221,0 2.6666671,1.24445 2.6666671,2.66667 0,1.42222 -1.244445,2.66667 -2.6666671,2.66667 H 7.1111111 c -0.4888889,0 -0.8888889,0.4 -0.8888889,0.88889 v 0.88889 h 2.6666667 c 2.4888891,0 4.4444441,-1.95556 4.4444441,-4.44445 0,-2.48889 -1.955555,-4.44444 -4.4444441,-4.44444 z M 4,6.22222 c -0.7111111,0 -1.3333333,0.62222 -1.3333333,1.33334 v 4 c 0,0.97777 0.8,1.77777 1.7777777,1.77777 V 8.88889 C 4.4444444,8.4 4.8444444,8 5.3333333,8 h 3.5555556 c 0.4888889,0 0.8888889,-0.4 0.8888889,-0.88889 0,-0.48889 -0.4,-0.88889 -0.8888889,-0.88889 z" />
</svg>
