<?xml version="1.0" encoding="UTF-8" standalone="no"?><!DOCTYPE svg PUBLIC "-//W3C//DTD SVG 1.1//EN" "http://www.w3.org/Graphics/SVG/1.1/DTD/svg11.dtd"><svg width="100%" height="100%" viewBox="0 0 603 516" version="1.1" xmlns="http://www.w3.org/2000/svg" xmlns:xlink="http://www.w3.org/1999/xlink" xml:space="preserve" xmlns:serif="http://www.serif.com/" style="fill-rule:evenodd;clip-rule:evenodd;stroke-linejoin:round;stroke-miterlimit:2;"><rect id="Page-1" serif:id="Page 1" x="0" y="0" width="602.187" height="515.868" style="fill:none;"/><g id="Layer-1" serif:id="Layer 1"><path d="M255.96,332.228l0,-144.557l124.863,72.103l-124.863,72.455Zm278.566,-188.171c-5.628,-20.751 -21.455,-36.932 -42.559,-42.559c-37.284,-10.2 -188.173,-10.2 -188.173,-10.2c0,0 -150.537,0 -187.819,10.2c-20.752,5.627 -36.932,21.808 -42.911,42.559c-9.848,37.283 -9.848,115.717 -9.848,115.717c0,0 0,78.434 9.848,116.07c5.979,20.399 22.159,36.93 42.911,42.558c37.283,10.2 187.819,10.2 187.819,10.2c0,0 150.889,0 188.173,-10.2c21.103,-5.627 36.93,-22.159 42.559,-42.558c10.199,-37.636 10.199,-116.07 10.199,-116.07c0,0 0,-78.434 -10.199,-115.717" style="fill:#fff;fill-rule:nonzero;"/></g></svg>